HIERARCHY
ROOT Joint1
{
	OFFSET 0.000000 0.000000 0.000000
	CHANNELS 6 Xposition Yposition Zposition Xrotation Yrotation Zrotation
	JOINT Joint2
	{
		OFFSET -0.000000 0.000000 1.456275
		CHANNELS 6 Xposition Yposition Zposition Xrotation Yrotation Zrotation
		JOINT Joint3
		{
			OFFSET -0.000000 0.000002 1.471446
			CHANNELS 6 Xposition Yposition Zposition Xrotation Yrotation Zrotation
			JOINT Joint4
			{
				OFFSET 0.625745 0.000000 0.917755
				CHANNELS 6 Xposition Yposition Zposition Xrotation Yrotation Zrotation
				JOINT Joint5
				{
					OFFSET -0.629534 0.000001 0.940221
					CHANNELS 6 Xposition Yposition Zposition Xrotation Yrotation Zrotation
					JOINT Joint6
					{
						OFFSET -0.000001 0.113772 1.960660
						CHANNELS 6 Xposition Yposition Zposition Xrotation Yrotation Zrotation
						JOINT Joint7
						{
							OFFSET -0.669733 -0.113771 0.388340
							CHANNELS 6 Xposition Yposition Zposition Xrotation Yrotation Zrotation
							End Site
							{
								OFFSET 0.005509 0.005509 0.438980
							}
						}
					}
				}
			}
		}
	}
}
MOTION
Frames: 14
Frame Time: 0.041667
0.000000 0.000000 0.000000 -0.000000 1.019410 -0.016733 -0.000000 0.000000 1.456275 0.000000 -44.980962 -0.000000 -0.000000 0.000002 1.471446 0.000000 -1.133459 0.005421 0.625745 0.000000 0.917755 0.000004 135.027430 -0.000001 -0.629534 0.000001 0.940221 -0.000000 1.709736 0.024683 -0.000001 0.113772 1.960660 -88.314612 89.982422 -0.007010 -0.669733 -0.113771 0.388340 -0.703833 3.566196 134.888819 
0.000000 0.000000 0.000000 -0.000000 1.019410 -0.035600 -0.000000 0.000000 1.456275 0.000000 -44.982386 0.000000 -0.000000 0.000002 1.471446 -0.000000 -1.133458 0.116106 0.625745 0.000000 0.917755 0.000004 135.056459 -0.000001 -0.629534 0.000001 0.940221 0.000000 1.709736 0.140430 0.000000 0.113772 1.960660 -88.292913 90.016641 0.007806 -0.669733 -0.113771 0.388340 -0.699659 3.566179 134.653792 
0.000000 0.000000 0.000000 -0.000000 1.019410 -0.067181 -0.000000 0.000000 1.456275 0.000000 -44.984767 -0.000000 -0.000000 0.000002 1.471445 -0.000000 -1.133459 0.301379 0.625744 0.000000 0.917755 0.000004 135.105021 -0.000001 -0.629534 0.000001 0.940221 -0.000000 1.709736 0.334176 -0.000001 0.113772 1.960660 -88.301293 90.073919 0.001591 -0.669733 -0.113771 0.388340 -0.692671 3.566113 134.260359 
0.000000 0.000000 0.000000 -0.000000 1.019410 -0.111588 -0.000000 0.000000 1.456275 0.000000 -44.988117 -0.000000 -0.000001 0.000002 1.471445 0.000000 -1.133463 0.561893 0.625745 0.000000 0.917755 0.000004 135.173337 -0.000001 -0.629534 0.000001 0.940221 0.000000 1.709737 0.606604 -0.000000 0.113772 1.960660 -88.302694 90.154454 0.000810 -0.669733 -0.113771 0.388341 -0.682847 3.565939 133.707196 
0.000000 0.000000 0.000000 -0.000000 1.019410 -0.168930 -0.000000 -0.000000 1.456275 -0.000000 -44.992440 -0.000000 -0.000000 0.000002 1.471446 0.000000 -1.133463 0.898298 0.625745 0.000000 0.917755 0.000003 135.261556 -0.000001 -0.629534 0.000001 0.940221 0.000000 1.709736 0.958395 -0.000000 0.113772 1.960661 -88.303185 90.258457 0.000449 -0.669733 -0.113771 0.388340 -0.670164 3.565575 132.992867 
0.000000 0.000000 0.000000 -0.000000 1.019410 -0.239321 -0.000000 0.000000 1.456275 0.000000 -44.997754 -0.000000 -0.000000 0.000002 1.471446 0.000000 -1.133457 1.311249 0.625744 0.000000 0.917755 0.000003 135.369841 -0.000001 -0.629534 0.000001 0.940221 0.000000 1.709736 1.390232 -0.000001 0.113772 1.960661 -88.303411 90.386113 0.000371 -0.669733 -0.113771 0.388340 -0.654603 3.564911 132.115994 
0.000000 0.000000 0.000000 -0.000000 1.019410 -0.322870 -0.000000 0.000000 1.456275 0.000000 -45.004058 -0.000000 -0.000000 0.000002 1.471446 0.000000 -1.133459 1.801398 0.625745 0.000000 0.917755 0.000003 135.498372 -0.000001 -0.629534 0.000001 0.940221 0.000000 1.709736 1.902797 -0.000001 0.113772 1.960660 -88.303547 90.537641 0.000273 -0.669733 -0.113771 0.388340 -0.636150 3.563815 131.075182 
0.000000 0.000000 0.000000 -0.000000 1.019410 -0.419689 -0.000000 0.000000 1.456275 0.000000 -45.011363 0.000000 -0.000000 0.000002 1.471446 -0.000000 -1.133458 2.369395 0.625745 0.000000 0.917755 0.000003 135.647311 -0.000001 -0.629534 0.000001 0.940221 0.000000 1.709736 2.496773 -0.000001 0.113772 1.960660 -88.303636 90.713245 0.000186 -0.669733 -0.113771 0.388340 -0.614794 3.562128 129.869080 
0.000000 0.000000 0.000000 -0.000000 1.019410 -0.529889 -0.000000 0.000000 1.456275 -0.000000 -45.019676 0.000000 -0.000000 0.000002 1.471446 0.000000 -1.133460 3.015896 0.625745 0.000000 0.917755 0.000004 135.816836 -0.000001 -0.629534 0.000001 0.940221 -0.000000 1.709736 3.172842 -0.000000 0.113772 1.960660 -88.303657 90.913103 0.000155 -0.669733 -0.113771 0.388340 -0.590536 3.559661 128.496294 
0.000000 0.000000 0.000000 -0.000000 1.019410 -0.653583 -0.000000 0.000000 1.456275 -0.000000 -45.029009 0.000000 -0.000000 0.000002 1.471446 -0.000000 -1.133456 3.741551 0.625744 0.000000 0.917755 0.000003 136.007112 -0.000000 -0.629534 0.000001 0.940221 -0.000000 1.709736 3.931685 -0.000001 0.113772 1.960660 -88.303732 91.137441 0.000113 -0.669733 -0.113771 0.388340 -0.563388 3.556203 126.955445 
0.000000 0.000000 0.000000 -0.000000 1.019410 -0.791054 -0.000000 0.000000 1.456275 -0.000000 -45.039381 -0.000000 -0.000000 0.000002 1.471446 -0.000000 -1.133459 4.548040 0.625744 0.000000 0.917755 0.000004 136.218588 -0.000001 -0.629534 0.000001 0.940221 0.000000 1.709736 4.775060 -0.000001 0.113772 1.960660 -88.303752 91.386763 0.000077 -0.669733 -0.113771 0.388340 -0.533337 3.551506 125.242939 
0.000000 0.000000 0.000000 -0.000000 1.019410 -0.943290 -0.000000 0.000000 1.456275 0.000000 -45.050866 0.000000 -0.000000 0.000002 1.471446 0.000000 -1.133458 5.441143 0.625744 0.000000 0.917755 0.000004 136.452782 -0.000001 -0.629534 0.000001 0.940221 0.000000 1.709736 5.709009 -0.000001 0.113772 1.960661 -88.303780 91.662867 0.000074 -0.669733 -0.113771 0.388340 -0.500240 3.545261 123.346536 
0.000000 0.000000 0.000000 -0.000000 1.019410 -1.111450 -0.000000 0.000000 1.456275 0.000000 -45.063553 -0.000000 -0.000000 0.000002 1.471445 -0.000000 -1.133461 6.427671 0.625745 0.000000 0.917755 0.000003 136.711455 -0.000001 -0.629534 0.000001 0.940221 -0.000000 1.709737 6.740656 -0.000001 0.113772 1.960660 -88.303786 91.967855 0.000056 -0.669733 -0.113771 0.388340 -0.463945 3.537097 121.251786 
0.000000 0.000000 0.000000 -0.000000 1.019410 -1.296696 -0.000000 0.000000 1.456275 0.000000 -45.077534 0.000000 -0.000001 0.000002 1.471446 -0.000000 -1.133460 7.514430 0.625745 0.000000 0.917755 0.000004 136.996424 -0.000001 -0.629533 0.000001 0.940220 0.000000 1.709737 7.877119 -0.000001 0.113772 1.960661 -88.303800 92.303825 0.000056 -0.669733 -0.113771 0.388339 -0.424338 3.526577 118.944220 
